@startuml
hide methods
skinparam classAttributeIconSize 0

class Company {
 -designation
}

class SNSUser {
-name
-address
-sex
-phoneNumber
-email
-birthDate
-snsNumber
-citizenCard
}

class Appointment{
-date
-time
}

class VaccineType {
  -code
  -description
  -vaccineTechnology
}

class Vaccine {
  -vacccineId
  -name
  -brand
}

class VaccinationCenter{
-name
-address
-phoneNumber
-emailAdress
-faxNumber
-websiteAddress
}

class MassVaccinationCenter extends VaccinationCenter{}

class HealthcareCenter extends VaccinationCenter{}

class ARS{}

class ACES{}

class AdministrationProcess {
-numberOfDoses
-maximumAge
-minumumAge
}

class Dose {
-doseNumber
-dosage
-timeBetweenDoses
}

class CenterCoordinator extends Employee{}

class Nurse extends Employee{}

class Employee {
-name
-emailAdress
-employeeId
-address
-phoneNumber
-ccNumber
}

class Role{
-designation
-roleId
}

class VaccineAdministration{
-lotNumber
-dateOfAdministration
}

class Slot{
-numberOfVaccinesSlot
-duration
}

class DaySchedule{
-openingHour
-closingHour
}

Company "1" -- "*" VaccineType: applies >
Company "1" -- "*" VaccinationCenter: manages >
VaccinationCenter"1" -- "*"Appointment: knows >
Company "1" -- "*" SNSUser: knows >
MassVaccinationCenter "*" -- "1" VaccineType : administers >
HealthcareCenter "1..*" -- "*" VaccineType : administers >
ACES"1" -- "1..*" HealthcareCenter :owns >
ARS"1" -- "1..*" HealthcareCenter : owns >
Appointment "1"--"1" SNSUser : requested by >
Company "1" -- "*" Vaccine : > applies
Vaccine "*" -- "1" VaccineType : > is of
AdministrationProcess "1..*" -- "1" Vaccine : has <
Dose "1..*" -- "1" AdministrationProcess : has <
VaccinationCenter "1" -- "1" CenterCoordinator : has >
Role"1" -- "*"Employee : has <
Company "1" --"*" Employee : employ >
VaccineAdministration "1" -- "1" Appointment : enables <
Appointment "1.." -- "1" VaccineType : is associated with >
Nurse "1" -- "*" VaccineAdministration : performs >
VaccineAdministration "*" -- "1" SNSUser : administered on >
Vaccine "1" -- "1" VaccineAdministration : administered during >


@enduml